<?xml version="1.0" encoding="UTF-8" standalone="no"?>
<!DOCTYPE svg PUBLIC "-//W3C//DTD SVG 1.1//EN" "http://www.w3.org/Graphics/SVG/1.1/DTD/svg11.dtd">
<svg xmlns="http://www.w3.org/2000/svg" version="1.1" viewBox="0 0 96 96">
<path stroke="#a2a5aa" stroke-width="2.00" fill="none" stroke-linecap="butt" vector-effect="non-scaling-stroke" d="
  M 44.52 36.70
  C 46.79 36.88 49.22 37.08 51.47 37.76
  A 1.36 1.32 82.5 0 1 52.24 38.37
  L 59.64 51.09
  A 0.23 0.22 44.6 0 0 60.03 51.09
  L 81.28 13.48
  A 0.39 0.38 19.5 0 0 81.00 12.91
  C 78.50 12.50 75.35 12.95 73.59 12.96
  Q 55.84 13.12 37.97 12.87
  Q 37.30 12.86 37.64 13.44
  L 43.71 23.73
  A 0.64 0.63 -23.2 0 0 44.45 24.02
  L 66.03 17.72
  A 2.15 2.14 -16.5 0 1 68.69 19.16
  Q 69.24 20.97 67.32 22.12
  Q 55.89 29.00 44.38 36.14
  A 0.30 0.30 0.0 0 0 44.52 36.70"
/>
<path fill="#444b54" d="
  M 48.43 41.57
  C 45.58 41.37 34.33 41.79 36.50 36.43
  Q 38.32 31.95 40.17 27.38
  A 0.99 0.97 41.6 0 0 40.11 26.52
  L 31.50 11.75
  A 2.41 2.38 -41.7 0 1 31.67 9.10
  C 32.85 7.53 79.01 8.25 84.53 8.25
  C 87.35 8.25 88.43 9.83 87.04 12.30
  Q 74.73 34.14 62.43 56.00
  C 61.20 58.20 59.24 59.10 57.72 56.54
  Q 53.48 49.37 49.30 42.11
  A 1.10 1.09 -13.0 0 0 48.43 41.57
  Z
  M 44.52 36.70
  C 46.79 36.88 49.22 37.08 51.47 37.76
  A 1.36 1.32 82.5 0 1 52.24 38.37
  L 59.64 51.09
  A 0.23 0.22 44.6 0 0 60.03 51.09
  L 81.28 13.48
  A 0.39 0.38 19.5 0 0 81.00 12.91
  C 78.50 12.50 75.35 12.95 73.59 12.96
  Q 55.84 13.12 37.97 12.87
  Q 37.30 12.86 37.64 13.44
  L 43.71 23.73
  A 0.64 0.63 -23.2 0 0 44.45 24.02
  L 66.03 17.72
  A 2.15 2.14 -16.5 0 1 68.69 19.16
  Q 69.24 20.97 67.32 22.12
  Q 55.89 29.00 44.38 36.14
  A 0.30 0.30 0.0 0 0 44.52 36.70
  Z"
/>
<path fill="#ffffff" d="
  M 51.47 37.76
  C 49.22 37.08 46.79 36.88 44.52 36.70
  A 0.30 0.30 0.0 0 1 44.38 36.14
  Q 55.89 29.00 67.32 22.12
  Q 69.24 20.97 68.69 19.16
  A 2.15 2.14 -16.5 0 0 66.03 17.72
  L 44.45 24.02
  A 0.64 0.63 -23.2 0 1 43.71 23.73
  L 37.64 13.44
  Q 37.30 12.86 37.97 12.87
  Q 55.84 13.12 73.59 12.96
  C 75.35 12.95 78.50 12.50 81.00 12.91
  A 0.39 0.38 19.5 0 1 81.28 13.48
  L 60.03 51.09
  A 0.23 0.22 44.6 0 1 59.64 51.09
  L 52.24 38.37
  A 1.36 1.32 82.5 0 0 51.47 37.76
  Z"
/>
<rect fill="#71c2ff" x="-7.02" y="-2.25" transform="translate(24.87,27.49) rotate(-16.0)" width="14.04" height="4.50" rx="2.17"/>
<circle fill="#71c2ff" cx="10.50" cy="31.48" r="2.23"/>
<rect fill="#71c2ff" x="-14.91" y="-2.25" transform="translate(18.55,49.46) rotate(-30.2)" width="29.82" height="4.50" rx="2.21"/>
<path fill="#71c2ff" d="
  M 16.68 81.21
  C 22.32 69.51 30.46 59.33 40.10 50.69
  Q 41.70 49.26 42.91 51.03
  C 43.67 52.15 43.67 53.39 42.60 54.36
  Q 29.02 66.68 20.64 83.00
  A 1.69 1.66 9.7 0 1 19.35 83.90
  Q 17.13 84.17 16.59 82.12
  A 1.35 1.34 -39.6 0 1 16.68 81.21
  Z"
/>
</svg>
